<mxfile host="app.diagrams.net" modified="2020-10-22T00:31:58.047Z" agent="5.0 (Windows NT 6.1) AppleWebKit/537.36 (KHTML, like Gecko) Chrome/69.0.3497.100 Safari/537.36" etag="UiX8O2ikNZtsKofk3DYr" version="13.8.1" type="github">
  <diagram id="vJ1Z253lDLvKl-iMrg5q" name="第 1 页">
    <mxGraphModel dx="3000" dy="891" grid="1" gridSize="10" guides="1" tooltips="1" connect="1" arrows="1" fold="1" page="1" pageScale="1" pageWidth="827" pageHeight="1169" math="0" shadow="0">
      <root>
        <mxCell id="0" />
        <mxCell id="1" parent="0" />
        <mxCell id="EM-8VcvDfKRyb6l0DwlN-16" value="" style="endArrow=classic;html=1;entryX=0;entryY=0.5;entryDx=0;entryDy=0;exitX=1;exitY=0.5;exitDx=0;exitDy=0;" edge="1" parent="1" source="EM-8VcvDfKRyb6l0DwlN-22" target="EM-8VcvDfKRyb6l0DwlN-18">
          <mxGeometry width="50" height="50" relative="1" as="geometry">
            <mxPoint x="-1300" y="440" as="sourcePoint" />
            <mxPoint x="-1199.9999999999998" y="320" as="targetPoint" />
          </mxGeometry>
        </mxCell>
        <mxCell id="EM-8VcvDfKRyb6l0DwlN-17" value="" style="endArrow=classic;html=1;entryX=0;entryY=0.5;entryDx=0;entryDy=0;exitX=1;exitY=0.5;exitDx=0;exitDy=0;" edge="1" parent="1" source="EM-8VcvDfKRyb6l0DwlN-22" target="EM-8VcvDfKRyb6l0DwlN-21">
          <mxGeometry width="50" height="50" relative="1" as="geometry">
            <mxPoint x="-1300" y="560" as="sourcePoint" />
            <mxPoint x="-1240" y="620" as="targetPoint" />
          </mxGeometry>
        </mxCell>
        <mxCell id="EM-8VcvDfKRyb6l0DwlN-18" value="&lt;h2&gt;&lt;font face=&quot;Garamond&quot;&gt;用户登录&lt;/font&gt;&lt;/h2&gt;" style="rounded=1;whiteSpace=wrap;html=1;" vertex="1" parent="1">
          <mxGeometry x="-1230" y="380" width="120" height="60" as="geometry" />
        </mxCell>
        <mxCell id="EM-8VcvDfKRyb6l0DwlN-21" value="&lt;h2&gt;忘记密码&lt;/h2&gt;" style="rounded=1;whiteSpace=wrap;html=1;" vertex="1" parent="1">
          <mxGeometry x="-1230" y="560" width="120" height="60" as="geometry" />
        </mxCell>
        <mxCell id="EM-8VcvDfKRyb6l0DwlN-22" value="&lt;h2&gt;仓库器材管理系统&lt;/h2&gt;" style="ellipse;whiteSpace=wrap;html=1;" vertex="1" parent="1">
          <mxGeometry x="-1640" y="450" width="220" height="80" as="geometry" />
        </mxCell>
        <mxCell id="EM-8VcvDfKRyb6l0DwlN-36" value="" style="endArrow=classic;html=1;exitX=1;exitY=0.5;exitDx=0;exitDy=0;entryX=0;entryY=0.5;entryDx=0;entryDy=0;" edge="1" parent="1" source="EM-8VcvDfKRyb6l0DwlN-18" target="EM-8VcvDfKRyb6l0DwlN-40">
          <mxGeometry width="50" height="50" relative="1" as="geometry">
            <mxPoint x="-1020" y="310" as="sourcePoint" />
            <mxPoint x="-1000" y="360" as="targetPoint" />
          </mxGeometry>
        </mxCell>
        <mxCell id="EM-8VcvDfKRyb6l0DwlN-37" value="" style="endArrow=classic;html=1;exitX=1;exitY=0.5;exitDx=0;exitDy=0;entryX=0;entryY=0.5;entryDx=0;entryDy=0;" edge="1" parent="1" source="EM-8VcvDfKRyb6l0DwlN-18" target="EM-8VcvDfKRyb6l0DwlN-42">
          <mxGeometry width="50" height="50" relative="1" as="geometry">
            <mxPoint x="-890" y="500" as="sourcePoint" />
            <mxPoint x="-1000" y="410" as="targetPoint" />
          </mxGeometry>
        </mxCell>
        <mxCell id="EM-8VcvDfKRyb6l0DwlN-39" value="" style="endArrow=classic;html=1;exitX=1;exitY=0.5;exitDx=0;exitDy=0;entryX=0;entryY=0.5;entryDx=0;entryDy=0;" edge="1" parent="1" source="EM-8VcvDfKRyb6l0DwlN-18" target="EM-8VcvDfKRyb6l0DwlN-43">
          <mxGeometry width="50" height="50" relative="1" as="geometry">
            <mxPoint x="-960" y="380" as="sourcePoint" />
            <mxPoint x="-1000" y="470" as="targetPoint" />
          </mxGeometry>
        </mxCell>
        <mxCell id="EM-8VcvDfKRyb6l0DwlN-40" value="当前信息" style="rounded=1;whiteSpace=wrap;html=1;" vertex="1" parent="1">
          <mxGeometry x="-920" y="170" width="120" height="60" as="geometry" />
        </mxCell>
        <mxCell id="EM-8VcvDfKRyb6l0DwlN-42" value="消息通知" style="rounded=1;whiteSpace=wrap;html=1;" vertex="1" parent="1">
          <mxGeometry x="-920" y="380" width="120" height="60" as="geometry" />
        </mxCell>
        <mxCell id="EM-8VcvDfKRyb6l0DwlN-43" value="导航栏" style="rounded=1;whiteSpace=wrap;html=1;" vertex="1" parent="1">
          <mxGeometry x="-920" y="570" width="120" height="60" as="geometry" />
        </mxCell>
        <mxCell id="EM-8VcvDfKRyb6l0DwlN-48" value="" style="endArrow=classic;html=1;exitX=1;exitY=0.5;exitDx=0;exitDy=0;entryX=0;entryY=0.5;entryDx=0;entryDy=0;" edge="1" parent="1" source="EM-8VcvDfKRyb6l0DwlN-40" target="EM-8VcvDfKRyb6l0DwlN-52">
          <mxGeometry width="50" height="50" relative="1" as="geometry">
            <mxPoint x="-740" y="230" as="sourcePoint" />
            <mxPoint x="-730" y="130" as="targetPoint" />
          </mxGeometry>
        </mxCell>
        <mxCell id="EM-8VcvDfKRyb6l0DwlN-49" value="" style="endArrow=classic;html=1;exitX=1;exitY=0.5;exitDx=0;exitDy=0;entryX=0;entryY=0.5;entryDx=0;entryDy=0;" edge="1" parent="1" source="EM-8VcvDfKRyb6l0DwlN-40" target="EM-8VcvDfKRyb6l0DwlN-51">
          <mxGeometry width="50" height="50" relative="1" as="geometry">
            <mxPoint x="-630" y="340" as="sourcePoint" />
            <mxPoint x="-690" y="200" as="targetPoint" />
          </mxGeometry>
        </mxCell>
        <mxCell id="EM-8VcvDfKRyb6l0DwlN-50" value="" style="endArrow=classic;html=1;exitX=1;exitY=0.5;exitDx=0;exitDy=0;entryX=0;entryY=0.5;entryDx=0;entryDy=0;" edge="1" parent="1" source="EM-8VcvDfKRyb6l0DwlN-40" target="EM-8VcvDfKRyb6l0DwlN-53">
          <mxGeometry width="50" height="50" relative="1" as="geometry">
            <mxPoint x="-650" y="430" as="sourcePoint" />
            <mxPoint x="-720" y="250" as="targetPoint" />
          </mxGeometry>
        </mxCell>
        <mxCell id="EM-8VcvDfKRyb6l0DwlN-51" value="修改资料" style="rounded=1;whiteSpace=wrap;html=1;" vertex="1" parent="1">
          <mxGeometry x="-630" y="170" width="120" height="60" as="geometry" />
        </mxCell>
        <mxCell id="EM-8VcvDfKRyb6l0DwlN-52" value="查看用户信息" style="rounded=1;whiteSpace=wrap;html=1;" vertex="1" parent="1">
          <mxGeometry x="-630" y="30" width="120" height="60" as="geometry" />
        </mxCell>
        <mxCell id="EM-8VcvDfKRyb6l0DwlN-53" value="退出登录" style="rounded=1;whiteSpace=wrap;html=1;" vertex="1" parent="1">
          <mxGeometry x="-630" y="360" width="120" height="60" as="geometry" />
        </mxCell>
      </root>
    </mxGraphModel>
  </diagram>
</mxfile>
